<svg width="66" height="66" viewBox="0 0 76 76" fill="none" xmlns="http://www.w3.org/2000/svg">
<rect x="1" y="1" width="74" height="74" rx="12" fill="#114728"/>
<rect x="1" y="1" width="74" height="74" rx="12" stroke="#2ECC71" stroke-width="2"/>
<g clip-path="url(#clip0_2234_202)">
<path d="M48.2035 25.1432L48.2035 47.8873C48.2035 50.6736 47.0966 53.3458 45.1264 55.3161C43.1562 57.2863 40.484 58.3931 37.6976 58.3931C34.9113 58.3931 32.2391 57.2863 30.2689 55.3161C28.2987 53.3458 27.1918 50.6736 27.1918 47.8873L27.1918 25.1432C27.1918 23.2857 27.9297 21.5042 29.2432 20.1907C30.5567 18.8772 32.3381 18.1393 34.1957 18.1393C36.0532 18.1393 37.8347 18.8772 39.1482 20.1907C40.4617 21.5042 41.1996 23.2857 41.1996 25.1432L41.1872 47.8997C41.1872 48.8285 40.8182 49.7192 40.1615 50.3759C39.5048 51.0327 38.614 51.4016 37.6853 51.4016C36.7565 51.4016 35.8657 51.0327 35.209 50.3759C34.5523 49.7192 34.1833 48.8285 34.1833 47.8997L34.1957 26.9004" stroke="#2ECC71" stroke-width="2" stroke-linecap="round" stroke-linejoin="round"/>
</g>
<defs>
<clipPath id="clip0_2234_202">
<rect width="42" height="42" fill="white" transform="translate(8 38.0002) rotate(-45)"/>
</clipPath>
</defs>
</svg>
