<svg width="42" height="42" viewBox="0 0 42 42" fill="none" xmlns="http://www.w3.org/2000/svg">
<path d="M21 1.75C19.6076 1.75 18.2723 2.30312 17.2877 3.28769C16.3031 4.27226 15.75 5.60761 15.75 7V21C15.75 22.3924 16.3031 23.7277 17.2877 24.7123C18.2723 25.6969 19.6076 26.25 21 26.25C22.3924 26.25 23.7277 25.6969 24.7123 24.7123C25.6969 23.7277 26.25 22.3924 26.25 21V7C26.25 5.60761 25.6969 4.27226 24.7123 3.28769C23.7277 2.30312 22.3924 1.75 21 1.75Z" stroke="#2ECC71" stroke-width="2" stroke-linecap="round" stroke-linejoin="round"/>
<path d="M33.25 17.5V21C33.25 24.2489 31.9594 27.3647 29.6621 29.6621C27.3647 31.9594 24.2489 33.25 21 33.25C17.7511 33.25 14.6353 31.9594 12.3379 29.6621C10.0406 27.3647 8.75 24.2489 8.75 21V17.5" stroke="#2ECC71" stroke-width="2" stroke-linecap="round" stroke-linejoin="round"/>
<path d="M21 33.25V40.25" stroke="#2ECC71" stroke-width="2" stroke-linecap="round" stroke-linejoin="round"/>
<path d="M14 40.25H28" stroke="#2ECC71" stroke-width="2" stroke-linecap="round" stroke-linejoin="round"/>
</svg>
